<?xml version="1.0" encoding="UTF-8" standalone="no"?>
<!DOCTYPE svg PUBLIC "-//W3C//DTD SVG 1.1//EN" "http://www.w3.org/Graphics/SVG/1.1/DTD/svg11.dtd">
<svg version="1.1" xmlns="http://www.w3.org/2000/svg" xmlns:xlink="http://www.w3.org/1999/xlink" preserveAspectRatio="xMidYMid meet" viewBox="-0.9999999999999432 -2.0220440881771538 644 647.74749498998" width="640" height="643.75"><defs><path d="M611.79 0C627.37 0 640 12.63 640 28.21C640 151.11 640 491.61 640 614.52C640 630.1 627.37 642.73 611.79 642.73C489.43 642.73 150.57 642.73 28.21 642.73C12.63 642.73 0 630.1 0 614.52C0 491.61 0 151.11 0 28.21C0 12.63 12.63 0 28.21 0C150.57 0 489.43 0 611.79 0Z" id="d575dT2UVd"></path><path d="M640 318.98C640 495.03 496.61 637.96 320 637.96C143.39 637.96 0 495.03 0 318.98C0 142.93 143.39 0 320 0C496.61 0 640 142.93 640 318.98Z" id="fseaGolOs"></path><path d="M454.47 318.98C454.47 495.59 395.28 638.98 322.38 638.98C249.49 638.98 190.3 495.59 190.3 318.98C190.3 142.37 249.49 -1.02 322.38 -1.02C395.28 -1.02 454.47 142.37 454.47 318.98Z" id="a1hfn4ocVq"></path></defs><g><g><use xlink:href="#d575dT2UVd" opacity="1" fill="#5c8f94" fill-opacity="1"></use></g><g><use xlink:href="#fseaGolOs" opacity="1" fill="#eceeec" fill-opacity="0.99"></use></g><g><use xlink:href="#a1hfn4ocVq" opacity="1" fill="#5c8f94" fill-opacity="1"></use></g></g></svg>